HIERARCHY
ROOT root
{
	OFFSET 0.000000 0.000000 0.000000
	CHANNELS 6 Xposition Yposition Zposition Zrotation Yrotation Xrotation
	JOINT lhip
	{
		OFFSET 0.058581 -0.082280 -0.017664
		CHANNELS 3 Zrotation Yrotation Xrotation
		JOINT lknee
		{
			OFFSET 0.043451 -0.386469 0.008037
			CHANNELS 3 Zrotation Yrotation Xrotation
			JOINT lankle
			{
				OFFSET -0.014790 -0.426874 -0.037428
				CHANNELS 3 Zrotation Yrotation Xrotation
				JOINT ltoe
				{
					OFFSET 0.041054 -0.060286 0.122042
					CHANNELS 3 Zrotation Yrotation Xrotation
					End Site
					{
						OFFSET 0.000000 0.000000 0.000000
					}
				}
			}
		}
	}
	JOINT rhip
	{
		OFFSET -0.060310 -0.090513 -0.013543
		CHANNELS 3 Zrotation Yrotation Xrotation
		JOINT rknee
		{
			OFFSET -0.043257 -0.383688 -0.004843
			CHANNELS 3 Zrotation Yrotation Xrotation
			JOINT rankle
			{
				OFFSET 0.019056 -0.420046 -0.034562
				CHANNELS 3 Zrotation Yrotation Xrotation
				JOINT rtoe
				{
					OFFSET -0.034840 -0.062106 0.130323
					CHANNELS 3 Zrotation Yrotation Xrotation
					End Site
					{
						OFFSET 0.000000 0.000000 0.000000
					}
				}
			}
		}
	}
	JOINT lowerback
	{
		OFFSET 0.004439 0.124404 -0.038385
		CHANNELS 3 Zrotation Yrotation Xrotation
		JOINT upperback
		{
			OFFSET 0.004488 0.137956 0.026820
			CHANNELS 3 Zrotation Yrotation Xrotation
			JOINT chest
			{
				OFFSET -0.002265 0.056032 0.002855
				CHANNELS 3 Zrotation Yrotation Xrotation
				JOINT lowerneck
				{
					OFFSET -0.013390 0.211636 -0.033468
					CHANNELS 3 Zrotation Yrotation Xrotation
					JOINT upperneck
					{
						OFFSET 0.010113 0.088937 0.050410
						CHANNELS 3 Zrotation Yrotation Xrotation
						End Site
						{
							OFFSET 0.000000 0.000000 0.000000
						}
					}
				}
				JOINT lclavicle
				{
					OFFSET 0.071702 0.114000 -0.018898
					CHANNELS 3 Zrotation Yrotation Xrotation
					JOINT lshoulder
					{
						OFFSET 0.122921 0.045205 -0.019046
						CHANNELS 3 Zrotation Yrotation Xrotation
						JOINT lelbow
						{
							OFFSET 0.255332 -0.015649 -0.022946
							CHANNELS 3 Zrotation Yrotation Xrotation
							JOINT lwrist
							{
								OFFSET 0.265709 0.012698 -0.007375
								CHANNELS 3 Zrotation Yrotation Xrotation
								End Site
								{
									OFFSET 0.000000 0.000000 0.000000
								}
							}
						}
					}
				}
				JOINT rclavicle
				{
					OFFSET -0.082954 0.112472 -0.023707
					CHANNELS 3 Zrotation Yrotation Xrotation
					JOINT rshoulder
					{
						OFFSET -0.113228 0.046853 -0.008472
						CHANNELS 3 Zrotation Yrotation Xrotation
						JOINT relbow
						{
							OFFSET -0.260127 -0.014369 -0.031269
							CHANNELS 3 Zrotation Yrotation Xrotation
							JOINT rwrist
							{
								OFFSET -0.269108 0.006794 -0.006027
								CHANNELS 3 Zrotation Yrotation Xrotation
								End Site
								{
									OFFSET 0.000000 0.000000 0.000000
								}
							}
						}
					}
				}
			}
		}
	}
}
MOTION
Frames: 5
Frame Time: 0.033333
-0.825825 0.667652 0.985328 -97.573814 -2.027256 88.519771 -1.313290 -1.920452 -17.786388 -0.794865 2.604816 0.145805 -3.549577 9.837607 6.824625 0.000000 -0.000000 0.000000 2.703830 -1.159617 6.694637 -0.016295 10.435586 17.374524 -1.327260 -6.128413 -21.936604 0.000000 -0.000000 0.000000 -2.624871 5.446824 10.811569 -1.690495 -0.944700 -2.190103 -1.632715 1.080589 1.418156 0.103935 13.190920 -3.273497 -4.250228 7.295332 11.699238 -27.469772 7.969521 -0.651375 -50.167003 5.090554 9.646491 2.708017 -27.433711 12.996350 -2.631909 -5.889886 -3.381963 26.834220 -0.084837 1.793357 51.102184 7.677822 21.023579 -6.132833 53.220345 7.558196 -0.038248 6.552169 -5.900329 
-0.858141 0.665757 0.980411 -97.935268 -1.743204 88.821943 -1.927443 -0.775179 -18.948325 -1.500040 7.507707 -0.340062 -3.648292 11.154448 8.675607 0.000000 -0.000000 0.000000 2.170185 -1.744867 8.324390 0.220385 10.395491 17.561335 -1.011563 -5.337860 -22.322808 0.000000 -0.000000 0.000000 -2.648323 5.717201 10.713528 -1.723261 -1.130711 -2.524524 -1.692730 1.270445 1.256886 -0.139558 13.321505 -3.448090 -4.326056 7.936356 11.427802 -27.338364 7.716492 -0.717216 -50.132988 5.005468 9.172632 2.797658 -26.806520 12.850503 -2.642772 -5.702773 -2.897197 26.915482 -0.506386 1.848794 51.649926 7.717363 20.818178 -6.874477 53.494072 7.215398 -1.360054 6.637332 -5.001536 
-0.891249 0.664171 0.975147 -98.439550 -1.493477 89.789862 -1.933917 -1.432386 -20.175069 -2.567536 12.835178 0.550977 -3.299817 11.404785 9.217270 0.000000 -0.000000 0.000000 1.740175 -1.340939 8.578546 -0.050909 8.582552 19.079778 0.394553 -3.009980 -22.597272 0.000000 -0.000000 0.000000 -3.178305 6.804369 9.053665 -1.203573 -1.703587 -0.689125 -1.773388 1.436919 -0.187678 -0.949424 14.660613 -3.701308 -3.657312 7.608824 11.287390 -27.722982 6.511480 -0.998591 -49.708278 5.933731 9.194973 3.917309 -27.105455 10.829778 -6.272958 -8.196263 -3.079907 27.411103 -0.575842 2.354631 51.346670 6.192174 20.483589 -7.332714 55.787792 9.981109 3.560371 7.590617 -7.912737 
-0.926762 0.661285 0.970753 -97.991058 -0.894550 90.206546 -2.982916 -1.023524 -20.945758 -2.585160 14.085925 3.495111 2.666768 12.195214 8.173548 0.000000 -0.000000 0.000000 1.141383 -2.222465 9.665762 0.829351 8.460924 20.374930 1.088549 -2.121903 -21.481850 0.000000 -0.000000 0.000000 -3.067140 6.853934 8.286143 -1.128776 -1.726073 -0.860306 -1.763839 1.461615 -0.054154 -0.866218 14.347465 -3.153086 -3.794311 9.044306 11.077715 -27.611914 6.594228 -0.968354 -49.588537 5.305939 8.949911 3.698054 -27.809467 10.850196 -5.772503 -7.581146 -3.317691 27.250666 -1.010509 2.464915 52.019552 5.081144 20.666482 -7.671300 55.644197 9.298285 3.329671 7.407469 -7.628780 
-0.963519 0.658191 0.967791 -97.506637 -0.753734 90.479401 -3.811606 -1.684763 -21.845692 -2.113371 13.739826 8.275884 7.026815 13.591057 4.648562 0.000000 -0.000000 0.000000 -0.194597 -3.015459 10.308871 2.198421 8.332322 22.974404 2.875591 -1.140994 -19.660977 0.000000 -0.000000 0.000000 -3.572844 7.255336 7.607883 -1.049185 -1.889382 -1.165323 -1.674147 1.376744 0.159566 -0.963412 14.282457 -2.484897 -3.931102 10.108317 10.526748 -27.411816 6.552347 -1.009048 -49.255967 4.904753 9.146878 3.105606 -29.046114 10.996531 -4.324884 -7.207063 -3.897682 27.549027 -1.620266 2.435748 52.277409 3.803904 20.770026 -7.680684 54.852527 9.002247 2.071697 7.542068 -5.801584 
